# The Great Editor v0.0.1
mtllib floor_1.mtl
o floor_1
v 9.330368247449147 -26.706947316127856 0
v 9.330368247449147 -26.706947316127856 -0.1
v 30.18745639216297 -26.731537899029814 0
v 30.18745639216297 -26.731537899029814 -0.1
v 30.044080778497566 -36.1226102595905 0
v 30.044080778497566 -36.1226102595905 -0.1
v 9.394601555678733 -36.14962702212881 0
v 9.394601555678733 -36.14962702212881 -0.1
vt 9.330368247449147 -26.706947316127856 0
vt 30.18745639216297 -26.731537899029814 0
vt 30.044080778497566 -36.1226102595905 0
vt 9.394601555678733 -36.14962702212881 0
vn 0 0 1
vn 0 0 -1
usemtl floor_1
s off
f 1/1/1 7/4/1 5/3/1
f 6/3/2 8/4/2 2/1/2
f 1/1/1 5/3/1 3/2/1
f 4/2/2 6/3/2 2/1/2
