# The Great Editor v0.0.1
mtllib floor_1.mtl
o floor_1
v 9.330368247449147 -26.706947316127856 0
v 9.330368247449147 -26.706947316127856 -0.1
v 30.18745639216297 -26.731537899029814 0
v 30.18745639216297 -26.731537899029814 -0.1
v 30.044080778497566 -36.1226102595905 0
v 30.044080778497566 -36.1226102595905 -0.1
v 9.394601555678733 -36.14962702212881 0
v 9.394601555678733 -36.14962702212881 -0.1
v 12.966056832149143 -30.356300649039117 0
v 12.966056832149143 -30.356300649039117 -0.1
v 12.966056832149143 -28.256300649039115 0
v 12.966056832149143 -28.256300649039115 -0.1
v 15.066056832149144 -28.256300649039115 0
v 15.066056832149144 -28.256300649039115 -0.1
v 15.066056832149144 -30.356300649039117 0
v 15.066056832149144 -30.356300649039117 -0.1
vt 9.330368247449147 -26.706947316127856 0
vt 30.18745639216297 -26.731537899029814 0
vt 30.044080778497566 -36.1226102595905 0
vt 9.394601555678733 -36.14962702212881 0
vt 12.966056832149143 -30.356300649039117 0
vt 12.966056832149143 -28.256300649039115 0
vt 15.066056832149144 -28.256300649039115 0
vt 15.066056832149144 -30.356300649039117 0
vn 0 0 1
vn 0 0 -1
usemtl floor_1
s off
f 1/1/1 7/4/1 9/5/1
f 10/5/2 8/4/2 2/1/2
f 1/1/1 9/5/1 11/6/1
f 12/6/2 10/5/2 2/1/2
f 1/1/1 11/6/1 13/7/1
f 14/7/2 12/6/2 2/1/2
f 1/1/1 13/7/1 3/2/1
f 4/2/2 14/7/2 2/1/2
f 3/2/1 13/7/1 15/8/1
f 16/8/2 14/7/2 4/2/2
f 3/2/1 15/8/1 5/3/1
f 6/3/2 16/8/2 4/2/2
f 5/3/1 15/8/1 7/4/1
f 8/4/2 16/8/2 6/3/2
f 7/4/1 15/8/1 9/5/1
f 10/5/2 16/8/2 8/4/2
