# The Great Editor v0.0.1
mtllib floor_1.mtl
o floor_1
v 0.8781951536230755 -0.7562809429230729 0
v 0.8781951536230755 -0.7562809429230729 -0.1
v 30.026343714116162 -0.7621422030528807 0
v 30.026343714116162 -0.7621422030528807 -0.1
v 30.038295588033026 -38.47478954896085 0
v 30.038295588033026 -38.47478954896085 -0.1
v 32.25056451467976 -38.45284804908361 0
v 32.25056451467976 -38.45284804908361 -0.1
v 32.314681603751914 -45.690586894767264 0
v 32.314681603751914 -45.690586894767264 -0.1
v 0.7492219470276087 -45.749913040776796 0
v 0.7492219470276087 -45.749913040776796 -0.1
v 12.966056832149143 -28.256300649039115 0
v 12.966056832149143 -28.256300649039115 -0.1
v 15.066056832149144 -28.256300649039115 0
v 15.066056832149144 -28.256300649039115 -0.1
v 30.037872545577457 -37.139931847964554 0
v 30.037872545577457 -37.139931847964554 -0.1
v 15.066056832149144 -30.356300649039117 0
v 15.066056832149144 -30.356300649039117 -0.1
v 12.966056832149143 -30.356300649039117 0
v 12.966056832149143 -30.356300649039117 -0.1
vt 0.8781951536230755 -0.7562809429230729 0
vt 30.026343714116162 -0.7621422030528807 0
vt 30.038295588033026 -38.47478954896085 0
vt 32.25056451467976 -38.45284804908361 0
vt 32.314681603751914 -45.690586894767264 0
vt 0.7492219470276087 -45.749913040776796 0
vt 12.966056832149143 -28.256300649039115 0
vt 15.066056832149144 -28.256300649039115 0
vt 30.037872545577457 -37.139931847964554 0
vt 15.066056832149144 -30.356300649039117 0
vt 12.966056832149143 -30.356300649039117 0
vn 0 0 1
vn 0 0 -1
usemtl floor_1
s off
f 1/1/1 11/6/1 13/7/1
f 14/7/2 12/6/2 2/1/2
f 1/1/1 13/7/1 15/8/1
f 16/8/2 14/7/2 2/1/2
f 1/1/1 15/8/1 3/2/1
f 4/2/2 16/8/2 2/1/2
f 3/2/1 15/8/1 17/9/1
f 18/9/2 16/8/2 4/2/2
f 15/8/1 5/3/1 17/9/1
f 18/9/2 6/3/2 16/8/2
f 7/4/1 5/3/1 9/5/1
f 10/5/2 6/3/2 8/4/2
f 9/5/1 5/3/1 11/6/1
f 12/6/2 6/3/2 10/5/2
f 11/6/1 5/3/1 19/10/1
f 20/10/2 6/3/2 12/6/2
f 11/6/1 19/10/1 21/11/1
f 22/11/2 20/10/2 12/6/2
f 11/6/1 21/11/1 13/7/1
f 14/7/2 22/11/2 12/6/2
f 15/8/1 19/10/1 5/3/1
f 6/3/2 20/10/2 16/8/2
