# The Great Editor v0.0.1
mtllib floor_1.mtl
o floor_1
v 73.01929134357107 -38.53310651209053 0
v 73.01929134357107 -38.53310651209053 -0.1
v 72.97816927174499 -13.798122766776675 0
v 72.97816927174499 -13.798122766776675 -0.1
v 11.841622604429599 -13.818109342138992 0
v 11.841622604429599 -13.818109342138992 -0.1
v 11.843241847362421 -38.56837975224954 0
v 11.843241847362421 -38.56837975224954 -0.1
v 23.06746624736955 -25.337345423592566 0
v 23.06746624736955 -25.337345423592566 -0.1
v 25.16746624736955 -25.337345423592566 0
v 25.16746624736955 -25.337345423592566 -0.1
v 61.60812309365618 -25.337345423592566 0
v 61.60812309365618 -25.337345423592566 -0.1
v 63.70812309365618 -25.337345423592566 0
v 63.70812309365618 -25.337345423592566 -0.1
v 63.70812309365618 -27.437345423592568 0
v 63.70812309365618 -27.437345423592568 -0.1
v 61.60812309365618 -27.437345423592568 0
v 61.60812309365618 -27.437345423592568 -0.1
v 25.16746624736955 -27.437345423592568 0
v 25.16746624736955 -27.437345423592568 -0.1
v 23.06746624736955 -27.437345423592568 0
v 23.06746624736955 -27.437345423592568 -0.1
vt 73.01929134357107 -38.53310651209053 0
vt 72.97816927174499 -13.798122766776675 0
vt 11.841622604429599 -13.818109342138992 0
vt 11.843241847362421 -38.56837975224954 0
vt 23.06746624736955 -25.337345423592566 0
vt 25.16746624736955 -25.337345423592566 0
vt 61.60812309365618 -25.337345423592566 0
vt 63.70812309365618 -25.337345423592566 0
vt 63.70812309365618 -27.437345423592568 0
vt 61.60812309365618 -27.437345423592568 0
vt 25.16746624736955 -27.437345423592568 0
vt 23.06746624736955 -27.437345423592568 0
vn 0 0 1
vn 0 0 -1
usemtl floor_1
s off
f 5/3/1 7/4/1 9/5/1
f 10/5/2 8/4/2 6/3/2
f 5/3/1 9/5/1 11/6/1
f 12/6/2 10/5/2 6/3/2
f 5/3/1 11/6/1 3/2/1
f 4/2/2 12/6/2 6/3/2
f 3/2/1 11/6/1 13/7/1
f 14/7/2 12/6/2 4/2/2
f 3/2/1 13/7/1 15/8/1
f 16/8/2 14/7/2 4/2/2
f 3/2/1 15/8/1 1/1/1
f 2/1/2 16/8/2 4/2/2
f 1/1/1 15/8/1 17/9/1
f 18/9/2 16/8/2 2/1/2
f 1/1/1 17/9/1 19/10/1
f 20/10/2 18/9/2 2/1/2
f 1/1/1 19/10/1 21/11/1
f 22/11/2 20/10/2 2/1/2
f 1/1/1 21/11/1 7/4/1
f 8/4/2 22/11/2 2/1/2
f 7/4/1 21/11/1 23/12/1
f 24/12/2 22/11/2 8/4/2
f 7/4/1 23/12/1 9/5/1
f 10/5/2 24/12/2 8/4/2
f 11/6/1 21/11/1 19/10/1
f 20/10/2 22/11/2 12/6/2
f 11/6/1 19/10/1 13/7/1
f 14/7/2 20/10/2 12/6/2
