# The Great Editor v0.0.1
mtllib floor_1.mtl
o floor_1
v 179.65603959475388 -113.14370004691517 0
v 179.65603959475388 -113.14370004691517 -0.1
v 179.65325004120925 -66.9703757866752 0
v 179.65325004120925 -66.9703757866752 -0.1
v 183.48635020731447 -66.9772228726484 0
v 183.48635020731447 -66.9772228726484 -0.1
v 183.22375178045363 -49.21402215581767 0
v 183.22375178045363 -49.21402215581767 -0.1
v 176.8615409324716 -49.3708288777964 0
v 176.8615409324716 -49.3708288777964 -0.1
v 166.01698246385197 -49.3708288777964 0
v 166.01698246385197 -49.3708288777964 -0.1
v 166.01698246385197 -53.678364476303564 0
v 166.01698246385197 -53.678364476303564 -0.1
v 158.87445741070252 -53.6508493345224 0
v 158.87445741070252 -53.6508493345224 -0.1
v 158.87445741070252 -47.77444346293484 0
v 158.87445741070252 -47.77444346293484 -0.1
v 164.25546393234058 -47.788179900844035 0
v 164.25546393234058 -47.788179900844035 -0.1
v 164.26129663520663 -13.074806527555289 0
v 164.26129663520663 -13.074806527555289 -0.1
v 125.27610240197461 -13.106801861392997 0
v 125.27610240197461 -13.106801861392997 -0.1
v 125.23565387557741 -25.306618427114447 0
v 125.23565387557741 -25.306618427114447 -0.1
v 97.90149494710411 -25.306026703635283 0
v 97.90149494710411 -25.306026703635283 -0.1
v 97.83674349209834 -54.36865218071233 0
v 97.83674349209834 -54.36865218071233 -0.1
v 74.53103800978032 -54.49380169655573 0
v 74.53103800978032 -54.49380169655573 -0.1
v 74.50390326166432 -112.99352908109566 0
v 74.50390326166432 -112.99352908109566 -0.1
vt 179.65603959475388 -113.14370004691517 0
vt 179.65325004120925 -66.9703757866752 0
vt 183.48635020731447 -66.9772228726484 0
vt 183.22375178045363 -49.21402215581767 0
vt 176.8615409324716 -49.3708288777964 0
vt 166.01698246385197 -49.3708288777964 0
vt 166.01698246385197 -53.678364476303564 0
vt 158.87445741070252 -53.6508493345224 0
vt 158.87445741070252 -47.77444346293484 0
vt 164.25546393234058 -47.788179900844035 0
vt 164.26129663520663 -13.074806527555289 0
vt 125.27610240197461 -13.106801861392997 0
vt 125.23565387557741 -25.306618427114447 0
vt 97.90149494710411 -25.306026703635283 0
vt 97.83674349209834 -54.36865218071233 0
vt 74.53103800978032 -54.49380169655573 0
vt 74.50390326166432 -112.99352908109566 0
vn 0 0 1
vn 0 0 -1
usemtl floor_1
s off
f 27/14/1 29/15/1 25/13/1
f 26/13/2 30/15/2 28/14/2
f 23/12/1 25/13/1 21/11/1
f 22/11/2 26/13/2 24/12/2
f 21/11/1 25/13/1 17/9/1
f 18/9/2 26/13/2 22/11/2
f 21/11/1 17/9/1 19/10/1
f 20/10/2 18/9/2 22/11/2
f 7/4/1 9/5/1 3/2/1
f 4/2/2 10/5/2 8/4/2
f 7/4/1 3/2/1 5/3/1
f 6/3/2 4/2/2 8/4/2
f 1/1/1 3/2/1 15/8/1
f 16/8/2 4/2/2 2/1/2
f 1/1/1 15/8/1 29/15/1
f 30/15/2 16/8/2 2/1/2
f 1/1/1 29/15/1 33/17/1
f 34/17/2 30/15/2 2/1/2
f 33/17/1 29/15/1 31/16/1
f 32/16/2 30/15/2 34/17/2
f 29/15/1 15/8/1 25/13/1
f 26/13/2 16/8/2 30/15/2
f 25/13/1 15/8/1 17/9/1
f 18/9/2 16/8/2 26/13/2
f 9/5/1 11/6/1 13/7/1
f 14/7/2 12/6/2 10/5/2
f 9/5/1 13/7/1 3/2/1
f 4/2/2 14/7/2 10/5/2
f 3/2/1 13/7/1 15/8/1
f 16/8/2 14/7/2 4/2/2
