# The Great Editor v0.0.1
mtllib floor_1.mtl
o floor_1
v 78.50183245454333 -45.17007542619347 0
v 78.50183245454333 -45.17007542619347 -0.1
v 78.50970609793586 -10.349750549736365 0
v 78.50970609793586 -10.349750549736365 -0.1
v 7.5498072967157706 -10.5526210011113 0
v 7.5498072967157706 -10.5526210011113 -0.1
v 7.475137729647935 -44.469226585959866 0
v 7.475137729647935 -44.469226585959866 -0.1
v 23.06746624736955 -27.437345423592568 0
v 23.06746624736955 -27.437345423592568 -0.1
v 23.06746624736955 -25.337345423592566 0
v 23.06746624736955 -25.337345423592566 -0.1
v 25.16746624736955 -25.337345423592566 0
v 25.16746624736955 -25.337345423592566 -0.1
v 61.60812309365618 -25.337345423592566 0
v 61.60812309365618 -25.337345423592566 -0.1
v 63.70812309365618 -25.337345423592566 0
v 63.70812309365618 -25.337345423592566 -0.1
v 63.70812309365618 -27.437345423592568 0
v 63.70812309365618 -27.437345423592568 -0.1
v 61.60812309365618 -27.437345423592568 0
v 61.60812309365618 -27.437345423592568 -0.1
v 25.16746624736955 -27.437345423592568 0
v 25.16746624736955 -27.437345423592568 -0.1
vt 78.50183245454333 -45.17007542619347 0
vt 78.50970609793586 -10.349750549736365 0
vt 7.5498072967157706 -10.5526210011113 0
vt 7.475137729647935 -44.469226585959866 0
vt 23.06746624736955 -27.437345423592568 0
vt 23.06746624736955 -25.337345423592566 0
vt 25.16746624736955 -25.337345423592566 0
vt 61.60812309365618 -25.337345423592566 0
vt 63.70812309365618 -25.337345423592566 0
vt 63.70812309365618 -27.437345423592568 0
vt 61.60812309365618 -27.437345423592568 0
vt 25.16746624736955 -27.437345423592568 0
vn 0 0 1
vn 0 0 -1
usemtl floor_1
s off
f 5/3/1 7/4/1 9/5/1
f 10/5/2 8/4/2 6/3/2
f 5/3/1 9/5/1 11/6/1
f 12/6/2 10/5/2 6/3/2
f 5/3/1 11/6/1 13/7/1
f 14/7/2 12/6/2 6/3/2
f 5/3/1 13/7/1 3/2/1
f 4/2/2 14/7/2 6/3/2
f 3/2/1 13/7/1 15/8/1
f 16/8/2 14/7/2 4/2/2
f 3/2/1 15/8/1 17/9/1
f 18/9/2 16/8/2 4/2/2
f 3/2/1 17/9/1 19/10/1
f 20/10/2 18/9/2 4/2/2
f 3/2/1 19/10/1 1/1/1
f 2/1/2 20/10/2 4/2/2
f 1/1/1 19/10/1 21/11/1
f 22/11/2 20/10/2 2/1/2
f 1/1/1 21/11/1 23/12/1
f 24/12/2 22/11/2 2/1/2
f 1/1/1 23/12/1 7/4/1
f 8/4/2 24/12/2 2/1/2
f 7/4/1 23/12/1 9/5/1
f 10/5/2 24/12/2 8/4/2
f 13/7/1 23/12/1 21/11/1
f 22/11/2 24/12/2 14/7/2
f 13/7/1 21/11/1 15/8/1
f 16/8/2 22/11/2 14/7/2
