# The Great Editor v0.0.1
mtllib floor_1.mtl
o floor_1
v 166.08466798263711 -109.43176900677544 0
v 166.08466798263711 -109.43176900677544 -0.1
v 166.13744201094647 -53.644250540667585 0
v 166.13744201094647 -53.644250540667585 -0.1
v 158.9391870908519 -53.63668223749956 0
v 158.9391870908519 -53.63668223749956 -0.1
v 158.94427060037756 -47.75539683111906 0
v 158.94427060037756 -47.75539683111906 -0.1
v 164.2798472401585 -47.76646499346242 0
v 164.2798472401585 -47.76646499346242 -0.1
v 164.34474119342062 -13.008624056383479 0
v 164.34474119342062 -13.008624056383479 -0.1
v 125.27876267182029 -12.963022349840482 0
v 125.27876267182029 -12.963022349840482 -0.1
v 125.25052732452706 -25.169176921128624 0
v 125.25052732452706 -25.169176921128624 -0.1
v 97.86348722278929 -25.155783664822486 0
v 97.86348722278929 -25.155783664822486 -0.1
v 97.78764210058213 -67.35132159614501 0
v 97.78764210058213 -67.35132159614501 -0.1
v 140.15229988624648 -67.38943266003552 0
v 140.15229988624648 -67.38943266003552 -0.1
v 140.2769925585844 -66.10339503290687 0
v 140.2769925585844 -66.10339503290687 -0.1
v 142.67168880649308 -65.83494449858263 0
v 142.67168880649308 -65.83494449858263 -0.1
v 142.556804484435 -109.38439451045082 0
v 142.556804484435 -109.38439451045082 -0.1
v 101.02230015596136 -60.23564605637432 0
v 101.02230015596136 -60.23564605637432 -0.1
v 103.12230015596136 -60.23564605637432 0
v 103.12230015596136 -60.23564605637432 -0.1
v 142.6568763687816 -71.44992750159739 0
v 142.6568763687816 -71.44992750159739 -0.1
v 103.12230015596136 -62.335646056374316 0
v 103.12230015596136 -62.335646056374316 -0.1
v 101.02230015596136 -62.335646056374316 0
v 101.02230015596136 -62.335646056374316 -0.1
vt 166.08466798263711 -109.43176900677544 0
vt 166.13744201094647 -53.644250540667585 0
vt 158.9391870908519 -53.63668223749956 0
vt 158.94427060037756 -47.75539683111906 0
vt 164.2798472401585 -47.76646499346242 0
vt 164.34474119342062 -13.008624056383479 0
vt 125.27876267182029 -12.963022349840482 0
vt 125.25052732452706 -25.169176921128624 0
vt 97.86348722278929 -25.155783664822486 0
vt 97.78764210058213 -67.35132159614501 0
vt 140.15229988624648 -67.38943266003552 0
vt 140.2769925585844 -66.10339503290687 0
vt 142.67168880649308 -65.83494449858263 0
vt 142.556804484435 -109.38439451045082 0
vt 101.02230015596136 -60.23564605637432 0
vt 103.12230015596136 -60.23564605637432 0
vt 142.6568763687816 -71.44992750159739 0
vt 103.12230015596136 -62.335646056374316 0
vt 101.02230015596136 -62.335646056374316 0
vn 0 0 1
vn 0 0 -1
usemtl floor_1
s off
f 17/9/1 19/10/1 29/15/1
f 30/15/2 20/10/2 18/9/2
f 17/9/1 29/15/1 31/16/1
f 32/16/2 30/15/2 18/9/2
f 17/9/1 31/16/1 15/8/1
f 16/8/2 32/16/2 18/9/2
f 13/7/1 15/8/1 11/6/1
f 12/6/2 16/8/2 14/7/2
f 11/6/1 15/8/1 7/4/1
f 8/4/2 16/8/2 12/6/2
f 11/6/1 7/4/1 9/5/1
f 10/5/2 8/4/2 12/6/2
f 3/2/1 5/3/1 25/13/1
f 26/13/2 6/3/2 4/2/2
f 3/2/1 25/13/1 1/1/1
f 2/1/2 26/13/2 4/2/2
f 33/17/1 1/1/1 25/13/1
f 26/13/2 2/1/2 34/17/2
f 27/14/1 1/1/1 33/17/1
f 34/17/2 2/1/2 28/14/2
f 19/10/1 21/11/1 35/18/1
f 36/18/2 22/11/2 20/10/2
f 19/10/1 35/18/1 37/19/1
f 38/19/2 36/18/2 20/10/2
f 19/10/1 37/19/1 29/15/1
f 30/15/2 38/19/2 20/10/2
f 31/16/1 35/18/1 23/12/1
f 24/12/2 36/18/2 32/16/2
f 31/16/1 23/12/1 15/8/1
f 16/8/2 24/12/2 32/16/2
f 15/8/1 23/12/1 7/4/1
f 8/4/2 24/12/2 16/8/2
f 7/4/1 23/12/1 25/13/1
f 26/13/2 24/12/2 8/4/2
f 7/4/1 25/13/1 5/3/1
f 6/3/2 26/13/2 8/4/2
f 21/11/1 23/12/1 35/18/1
f 36/18/2 24/12/2 22/11/2
