# The Great Editor v0.0.1
mtllib floor_1.mtl
o floor_1
v 0.0 0.0 0
v 0.0 0.0 -0.1
v 10.0 0.0 0
v 10.0 0.0 -0.1
v 10.0 -6.666666666666667 0
v 10.0 -6.666666666666667 -0.1
v 0.0 -6.666666666666667 0
v 0.0 -6.666666666666667 -0.1
v 5.616666666666667 -5.383333333333333 0
v 5.616666666666667 -5.383333333333333 -0.1
v 5.616666666666667 -1.2833333333333337 0
v 5.616666666666667 -1.2833333333333337 -0.1
v 9.716666666666667 -1.2833333333333337 0
v 9.716666666666667 -1.2833333333333337 -0.1
v 9.716666666666667 -5.383333333333333 0
v 9.716666666666667 -5.383333333333333 -0.1
vt 0.0 0.0 0
vt 10.0 0.0 0
vt 10.0 -6.666666666666667 0
vt 0.0 -6.666666666666667 0
vt 5.616666666666667 -5.383333333333333 0
vt 5.616666666666667 -1.2833333333333337 0
vt 9.716666666666667 -1.2833333333333337 0
vt 9.716666666666667 -5.383333333333333 0
vn 0 0 1
vn 0 0 -1
usemtl floor_1
s off
f 1/1/1 7/4/1 9/5/1
f 10/5/2 8/4/2 2/1/2
f 1/1/1 9/5/1 11/6/1
f 12/6/2 10/5/2 2/1/2
f 1/1/1 11/6/1 3/2/1
f 4/2/2 12/6/2 2/1/2
f 3/2/1 11/6/1 13/7/1
f 14/7/2 12/6/2 4/2/2
f 3/2/1 13/7/1 15/8/1
f 16/8/2 14/7/2 4/2/2
f 3/2/1 15/8/1 5/3/1
f 6/3/2 16/8/2 4/2/2
f 5/3/1 15/8/1 9/5/1
f 10/5/2 16/8/2 6/3/2
f 5/3/1 9/5/1 7/4/1
f 8/4/2 10/5/2 6/3/2
